# xmcd
#
# Track frame offsets: 
#        150
#        12690
#        27615
#        43612
#        53307
#        71637
#        84530
#        96537
#        114592
#        126977
#        148015
#        161257
#
# Disc length: 2439 seconds
#
# Revision: 0
# Processed by: cddbd v1.5.1PL2 Copyright (c) Steve Scherf et al.
# Submitted via: ExactAudioCopy v0.95b3
#
DISCID=a709850c
DTITLE=Sarah Hepburn - Stars and Haze
DYEAR=2005
DGENRE=R&B
TTITLE0=All Through The Night
TTITLE1=Ebinger Drive
TTITLE2=Sad Song
TTITLE3=Verses To Leave By
TTITLE4=The Terror
TTITLE5=Hey...O.K.!
TTITLE6=Blue Jeans
TTITLE7=For Slow Learners
TTITLE8=Break Another Day
TTITLE9=Lowell Avenue
TTITLE10=Last Words
TTITLE11=Which Way From Here
EXTD=
EXTT0=
EXTT1=
EXTT2=
EXTT3=
EXTT4=
EXTT5=
EXTT6=
EXTT7=
EXTT8=
EXTT9=
EXTT10=
EXTT11=
PLAYORDER=
